<svg width="34" height="32" viewBox="0 0 34 32" fill="none" xmlns="http://www.w3.org/2000/svg">
<g clip-path="url(#clip0)">
<path d="M16.3293 29.7145C24.3815 29.7145 30.909 23.3186 30.909 15.4288C30.909 7.539 24.3815 1.14307 16.3293 1.14307C8.27709 1.14307 1.74951 7.539 1.74951 15.4288C1.74951 23.3186 8.27709 29.7145 16.3293 29.7145Z" fill="#61537C"/>
<path d="M16.0378 25.7144C21.9964 25.7144 26.8268 20.9814 26.8268 15.143C26.8268 9.30452 21.9964 4.57153 16.0378 4.57153C10.0792 4.57153 5.24878 9.30452 5.24878 15.143C5.24878 20.9814 10.0792 25.7144 16.0378 25.7144Z" fill="#7D6599"/>
<path d="M15.746 20.0001C18.6448 20.0001 20.9947 17.6975 20.9947 14.8572C20.9947 12.0169 18.6448 9.71436 15.746 9.71436C12.8472 9.71436 10.4973 12.0169 10.4973 14.8572C10.4973 17.6975 12.8472 20.0001 15.746 20.0001Z" fill="#936AAD"/>
<path d="M31.4924 4.00003C31.8145 4.00003 32.0756 3.7442 32.0756 3.42861C32.0756 3.11301 31.8145 2.85718 31.4924 2.85718C31.1703 2.85718 30.9092 3.11301 30.9092 3.42861C30.9092 3.7442 31.1703 4.00003 31.4924 4.00003Z" fill="#FED402"/>
<path d="M33.2419 18.2859C33.564 18.2859 33.8251 18.0301 33.8251 17.7145C33.8251 17.3989 33.564 17.1431 33.2419 17.1431C32.9198 17.1431 32.6587 17.3989 32.6587 17.7145C32.6587 18.0301 32.9198 18.2859 33.2419 18.2859Z" fill="#FED402"/>
<path d="M24.1399 15.3335C24.7032 15.3335 25.1599 14.8858 25.1599 14.3335C25.1599 13.7812 24.7032 13.3335 24.1399 13.3335C23.5765 13.3335 23.1199 13.7812 23.1199 14.3335C23.1199 14.8858 23.5765 15.3335 24.1399 15.3335Z" fill="white"/>
<path d="M13.9399 21.3335C14.5033 21.3335 14.9599 20.8858 14.9599 20.3335C14.9599 19.7812 14.5033 19.3335 13.9399 19.3335C13.3766 19.3335 12.9199 19.7812 12.9199 20.3335C12.9199 20.8858 13.3766 21.3335 13.9399 21.3335Z" fill="#FED402"/>
<path d="M18.662 16C18.9841 16 19.2452 15.7442 19.2452 15.4286C19.2452 15.113 18.9841 14.8572 18.662 14.8572C18.34 14.8572 18.0789 15.113 18.0789 15.4286C18.0789 15.7442 18.34 16 18.662 16Z" fill="white"/>
<path d="M9.17991 16.0002C9.74324 16.0002 10.1999 15.5525 10.1999 15.0002C10.1999 14.448 9.74324 14.0002 9.17991 14.0002C8.61658 14.0002 8.15991 14.448 8.15991 15.0002C8.15991 15.5525 8.61658 16.0002 9.17991 16.0002Z" fill="white"/>
<path d="M32.6586 30.2859C32.9807 30.2859 33.2418 30.0301 33.2418 29.7145C33.2418 29.3989 32.9807 29.1431 32.6586 29.1431C32.3365 29.1431 32.0754 29.3989 32.0754 29.7145C32.0754 30.0301 32.3365 30.2859 32.6586 30.2859Z" fill="#FED402"/>
<path d="M8.74774 32C9.06983 32 9.33093 31.7442 9.33093 31.4286C9.33093 31.113 9.06983 30.8572 8.74774 30.8572C8.42565 30.8572 8.16455 31.113 8.16455 31.4286C8.16455 31.7442 8.42565 32 8.74774 32Z" fill="#FED402"/>
<path d="M1.16644 24.5716C1.48853 24.5716 1.74963 24.3157 1.74963 24.0001C1.74963 23.6845 1.48853 23.4287 1.16644 23.4287C0.844355 23.4287 0.583252 23.6845 0.583252 24.0001C0.583252 24.3157 0.844355 24.5716 1.16644 24.5716Z" fill="#FED402"/>
<path d="M4.66547 18.2859C4.98755 18.2859 5.24866 18.0301 5.24866 17.7145C5.24866 17.3989 4.98755 17.1431 4.66547 17.1431C4.34338 17.1431 4.08228 17.3989 4.08228 17.7145C4.08228 18.0301 4.34338 18.2859 4.66547 18.2859Z" fill="#FED402"/>
<path d="M0.58319 2.85721C0.905278 2.85721 1.16638 2.60138 1.16638 2.28578C1.16638 1.97019 0.905278 1.71436 0.58319 1.71436C0.261103 1.71436 0 1.97019 0 2.28578C0 2.60138 0.261103 2.85721 0.58319 2.85721Z" fill="#FED402"/>
<path d="M8.74774 4.00003C9.06983 4.00003 9.33093 3.7442 9.33093 3.42861C9.33093 3.11301 9.06983 2.85718 8.74774 2.85718C8.42565 2.85718 8.16455 3.11301 8.16455 3.42861C8.16455 3.7442 8.42565 4.00003 8.74774 4.00003Z" fill="#FED402"/>
<path d="M14.6201 6.66699C15.1834 6.66699 15.6401 6.21928 15.6401 5.66699C15.6401 5.11471 15.1834 4.66699 14.6201 4.66699C14.0568 4.66699 13.6001 5.11471 13.6001 5.66699C13.6001 6.21928 14.0568 6.66699 14.6201 6.66699Z" fill="#FED402"/>
<path d="M6.99823 10.8572C7.32032 10.8572 7.58142 10.6014 7.58142 10.2858C7.58142 9.97019 7.32032 9.71436 6.99823 9.71436C6.67614 9.71436 6.41504 9.97019 6.41504 10.2858C6.41504 10.6014 6.67614 10.8572 6.99823 10.8572Z" fill="white"/>
<path d="M15.746 29.7144C16.0681 29.7144 16.3292 29.4586 16.3292 29.143C16.3292 28.8274 16.0681 28.5715 15.746 28.5715C15.4239 28.5715 15.1628 28.8274 15.1628 29.143C15.1628 29.4586 15.4239 29.7144 15.746 29.7144Z" fill="#FED402"/>
<path d="M22.78 25.3335C23.3433 25.3335 23.8 24.8858 23.8 24.3335C23.8 23.7812 23.3433 23.3335 22.78 23.3335C22.2167 23.3335 21.76 23.7812 21.76 24.3335C21.76 24.8858 22.2167 25.3335 22.78 25.3335Z" fill="#FED402"/>
<path d="M27.4099 1.71439C27.7319 1.71439 27.993 1.45855 27.993 1.14296C27.993 0.82737 27.7319 0.571533 27.4099 0.571533C27.0878 0.571533 26.8267 0.82737 26.8267 1.14296C26.8267 1.45855 27.0878 1.71439 27.4099 1.71439Z" fill="#FED402"/>
<path d="M20.4116 4.00003C20.7336 4.00003 20.9948 3.7442 20.9948 3.42861C20.9948 3.11301 20.7336 2.85718 20.4116 2.85718C20.0895 2.85718 19.8284 3.11301 19.8284 3.42861C19.8284 3.7442 20.0895 4.00003 20.4116 4.00003Z" fill="#FED402"/>
<path d="M32.6586 9.14289C33.3027 9.14289 33.8249 8.63122 33.8249 8.00004C33.8249 7.36885 33.3027 6.85718 32.6586 6.85718C32.0144 6.85718 31.4922 7.36885 31.4922 8.00004C31.4922 8.63122 32.0144 9.14289 32.6586 9.14289Z" fill="#FED402"/>
<path d="M1.16638 11.4288C1.81056 11.4288 2.33276 10.9171 2.33276 10.2859C2.33276 9.65474 1.81056 9.14307 1.16638 9.14307C0.522206 9.14307 0 9.65474 0 10.2859C0 10.9171 0.522206 11.4288 1.16638 11.4288Z" fill="#FED402"/>
<path d="M2.33288 30.8572C2.97706 30.8572 3.49927 30.3456 3.49927 29.7144C3.49927 29.0832 2.97706 28.5715 2.33288 28.5715C1.68871 28.5715 1.1665 29.0832 1.1665 29.7144C1.1665 30.3456 1.68871 30.8572 2.33288 30.8572Z" fill="#FED402"/>
<path d="M15.6821 13.1429C12.7778 13.1429 10.4334 15.44 10.4334 18.2857C10.4334 21.1314 13.361 23.4286 16.2653 23.4286C21.2166 23.5886 25.1648 21.1714 26.1329 16.4114C27.2759 10.8114 23.5668 5.36001 17.8516 4.24001C11.1274 2.92001 4.58397 7.1943 3.24264 13.7829C1.66219 21.5372 6.78843 29.08 14.7023 30.6286C22.4529 32.1486 30.0227 28.3029 33.4169 21.7143" stroke="#BE9AC8" stroke-width="2" stroke-miterlimit="10" stroke-linecap="round"/>
<path d="M16.3295 18.2858C19.8636 18.4744 22.2022 16.0858 22.2022 13.2458C22.2022 10.4058 19.8519 8.10298 16.9535 8.10298C12.0022 7.94298 7.47079 10.3601 6.5027 15.1258C5.35964 20.7258 9.06873 26.1773 14.784 27.2973C21.5082 28.6173 28.0516 24.343 29.3988 17.7544C30.9792 10.0001 25.853 2.46297 17.9391 0.908689C11.4307 -0.371311 5.05638 2.12583 1.1665 6.85726" stroke="#6A4175" stroke-width="2" stroke-miterlimit="10" stroke-linecap="round"/>
</g>
<defs>
<clipPath id="clip0">
<rect width="34" height="32" fill="white"/>
</clipPath>
</defs>
</svg>
