<svg width="193" height="62" viewBox="0 0 193 62" fill="none" xmlns="http://www.w3.org/2000/svg">
<g filter="url(#filter0_d)">
<path d="M159.151 50.7955L188.338 0.225586H181.302L158.782 39.6124V50.7955H159.151Z" fill="white"/>
<path d="M33.2175 2.71411L4 53.2841H11.0356L33.5555 13.8665V2.71411H33.2175Z" fill="white"/>
<path opacity="0.6" d="M109.81 39.6124V50.7955H110.178L131.5 13.8665V2.71411H131.132L109.81 39.6124Z" fill="white"/>
<path d="M60.8374 39.6124V50.7955H61.2061L82.5278 13.8665V2.71411H82.1591L60.8374 39.6124Z" fill="white"/>
<path d="M37.8567 49.2901C37.8567 51.9323 39.2085 53.2841 41.8507 53.2841H56.5977V4.21957C56.5977 1.57739 55.2459 0.225586 52.6037 0.225586H37.8567V49.2901Z" fill="white"/>
<path d="M86.7368 49.2901C86.7368 51.9323 88.0886 53.2841 90.7308 53.2841H105.478V4.21957C105.478 1.57739 104.126 0.225586 101.484 0.225586H86.7368V49.2901Z" fill="white"/>
<path d="M135.771 49.2901C135.771 51.9323 137.122 53.2841 139.765 53.2841H154.512V4.21957C154.512 1.57739 153.16 0.225586 150.518 0.225586H135.771V49.2901Z" fill="white"/>
<path d="M179.366 48.8293H177.646V48.2456H181.763V48.8293H180.042V53.2842H179.397V48.8293H179.366ZM182.531 48.2456H183.36L185.142 52.5161L186.924 48.2456H187.754V53.2842H187.201V49.1673L185.419 53.2842H184.897L183.115 49.1673V53.2842H182.562V48.2456H182.531Z" fill="white"/>
</g>
<defs>
<filter id="filter0_d" x="0" y="0.225586" width="192.338" height="61.0586" filterUnits="userSpaceOnUse" color-interpolation-filters="sRGB">
<feFlood flood-opacity="0" result="BackgroundImageFix"/>
<feColorMatrix in="SourceAlpha" type="matrix" values="0 0 0 0 0 0 0 0 0 0 0 0 0 0 0 0 0 0 127 0"/>
<feOffset dy="4"/>
<feGaussianBlur stdDeviation="2"/>
<feColorMatrix type="matrix" values="0 0 0 0 0.0666667 0 0 0 0 0.0588235 0 0 0 0 0.0588235 0 0 0 0.3 0"/>
<feBlend mode="overlay" in2="BackgroundImageFix" result="effect1_dropShadow"/>
<feBlend mode="normal" in="SourceGraphic" in2="effect1_dropShadow" result="shape"/>
</filter>
</defs>
</svg>
