<?xml version="1.0" standalone="no"?>
<!DOCTYPE svg PUBLIC "-//W3C//DTD SVG 20010904//EN"
 "http://www.w3.org/TR/2001/REC-SVG-20010904/DTD/svg10.dtd">
<svg version="1.0" xmlns="http://www.w3.org/2000/svg"
 width="180.000000pt" height="180.000000pt" viewBox="0 0 180.000000 180.000000"
 preserveAspectRatio="xMidYMid meet">
<metadata>
Created by potrace 1.11, written by Peter Selinger 2001-2013
</metadata>
<g transform="translate(0.000000,180.000000) scale(0.100000,-0.100000)"
fill="#000000" stroke="none">
<path d="M0 900 l0 -900 900 0 900 0 0 900 0 900 -900 0 -900 0 0 -900z m1220
602 c127 -28 190 -60 190 -97 0 -17 -405 -390 -458 -422 -41 -25 -92 -29 -134
-10 -35 16 -478 415 -478 431 0 48 127 96 303 116 125 15 480 4 577 -18z
m-630 -492 c250 -223 272 -237 330 -209 16 8 128 104 250 214 122 110 226 202
231 203 5 2 9 -32 9 -76 l0 -80 -142 -129 c-79 -70 -180 -163 -226 -205 -95
-88 -136 -106 -201 -88 -43 11 -58 24 -325 264 l-176 160 0 78 c0 43 3 78 8
78 4 0 113 -95 242 -210z m-117 -223 c216 -199 342 -309 367 -319 63 -24 92
-3 455 331 55 50 103 91 107 91 9 0 11 -131 2 -154 -6 -14 -320 -303 -422
-387 -24 -21 -58 -40 -74 -43 -67 -13 -98 7 -315 200 -114 102 -218 198 -230
212 -19 23 -23 39 -23 100 0 42 4 72 10 72 6 0 61 -47 123 -103z"/>
</g>
</svg>
