<svg width="81" height="90" viewBox="0 0 81 90" fill="none" xmlns="http://www.w3.org/2000/svg">
<g filter="url(#filter0_d)">
<path opacity="0.6" d="M8.18942 18.4196C5.64291 19.8538 4.04107 22.5582 4 25.4676H4.04107V46.4889L28.4383 57.9625L53.5338 31.6142L37.1457 1.90576C36.8171 2.02869 36.4886 2.1926 36.1189 2.39749L8.18942 18.4196Z" fill="white"/>
<path d="M37.7207 0.430664L37.2689 0.594573C37.1046 0.63555 36.8993 0.717504 36.735 0.799458L37.2689 0.594573C37.4332 0.512618 37.5975 0.471641 37.7207 0.430664Z" fill="white"/>
<path opacity="0.8" d="M54.1499 32.7617L29.5884 58.5363L33.6546 60.4623L58.8322 72.3047L71.6058 64.9698L71.7701 64.8468L71.5647 64.478L54.1499 32.7617Z" fill="white"/>
<path d="M58.9143 73.6978L59.2018 73.5339L58.9143 73.6978Z" fill="white"/>
<path opacity="0.4" d="M38.3779 1.53716L54.3963 30.6719L68.3611 16.084L44.3746 2.39768C42.5263 1.37325 40.3905 1.08641 38.3779 1.53716Z" fill="white"/>
<path opacity="0.5" d="M76.4523 25.4676C76.4523 22.5173 74.9326 19.8538 72.345 18.3786L69.4289 16.7395L55.0123 31.8601L72.8379 64.273C75.0559 62.7568 76.4523 60.2163 76.4523 57.5118V25.4676Z" fill="white"/>
<path opacity="0.5" d="M27.5346 58.9462L4.04102 47.8823V57.512C4.04102 60.3804 5.64285 63.0848 8.14829 64.56L17.1843 69.7641L27.5346 58.9462Z" fill="white"/>
<path d="M28.6847 59.4788L18.3344 70.3787L36.1189 80.582C38.6654 82.0572 41.828 82.0572 44.3745 80.582L57.5178 73.0422L28.6847 59.4788Z" fill="white"/>
</g>
<defs>
<filter id="filter0_d" x="0" y="0.430664" width="80.4523" height="89.2577" filterUnits="userSpaceOnUse" color-interpolation-filters="sRGB">
<feFlood flood-opacity="0" result="BackgroundImageFix"/>
<feColorMatrix in="SourceAlpha" type="matrix" values="0 0 0 0 0 0 0 0 0 0 0 0 0 0 0 0 0 0 127 0"/>
<feOffset dy="4"/>
<feGaussianBlur stdDeviation="2"/>
<feColorMatrix type="matrix" values="0 0 0 0 0.0666667 0 0 0 0 0.0588235 0 0 0 0 0.0588235 0 0 0 0.3 0"/>
<feBlend mode="overlay" in2="BackgroundImageFix" result="effect1_dropShadow"/>
<feBlend mode="normal" in="SourceGraphic" in2="effect1_dropShadow" result="shape"/>
</filter>
</defs>
</svg>
