<svg width="45" height="40" viewBox="0 0 45 40" fill="none" xmlns="http://www.w3.org/2000/svg">
<g clip-path="url(#clip0)">
<path d="M26.3386 33.8613C33.6092 30.471 36.7548 21.8286 33.3644 14.558C29.9741 7.28739 21.3317 4.14181 14.0611 7.53215C6.79047 10.9225 3.6449 19.5649 7.03524 26.8355C10.4256 34.1061 19.068 37.2517 26.3386 33.8613Z" fill="url(#paint0_linear)"/>
<path d="M13.1038 33.3716C17.0397 35.5705 21.9402 35.9123 26.3386 33.8614C30.7369 31.8104 33.625 27.8367 34.4705 23.4081C32.2424 25.5509 28.7027 27.8938 24.4751 29.8652C20.2475 31.8366 16.1779 33.0418 13.1038 33.3716Z" fill="url(#paint1_linear)"/>
<path d="M25.7255 7.26408C22.1022 5.77453 17.8912 5.74603 14.0611 7.53203C10.2311 9.31802 7.54609 12.5622 6.35815 16.2952C9.26339 15.822 12.8629 14.6801 16.585 12.9444C20.3071 11.2088 23.495 9.18567 25.7255 7.26408Z" fill="url(#paint2_linear)"/>
<path d="M18.5326 17.1212C18.8374 17.7748 19.6212 18.0472 20.2671 17.726C23.7687 15.9861 26.8503 13.9644 29.0377 11.964C29.5358 11.5082 30.0439 11.0002 30.5083 10.4588C29.9018 9.84818 29.2464 9.2967 28.5508 8.80909C28.2236 9.18701 27.8151 9.6079 27.3079 10.0723C25.29 11.9179 22.4141 13.798 19.122 15.4327C18.5 15.7422 18.2391 16.4917 18.5326 17.1212Z" fill="url(#paint3_linear)"/>
<path d="M14.0611 7.53215C13.7134 7.69425 13.3754 7.8688 13.0467 8.05401C14.5414 7.49349 16.0797 7.19562 17.6061 7.14061C22.864 6.95198 24.6833 14.0609 19.9871 16.4329C19.5143 16.6716 19.0314 16.9061 18.5392 17.1356C13.5825 19.447 8.84333 20.7053 5.67153 20.7331C5.67576 22.7802 6.11322 24.8582 7.03524 26.8355C7.40284 27.6238 7.83244 28.3638 8.31549 29.052C11.396 29.4286 16.7804 28.1618 22.4484 25.5188C25.4022 24.1414 28.0193 22.583 30.0884 21.0377C31.1732 20.2277 32.7126 21.0399 32.6432 22.392C32.6425 22.4092 32.6412 22.4267 32.6405 22.444C32.6159 22.8974 32.4038 23.3206 32.0501 23.6052C29.8883 25.3426 27.0365 27.0675 23.8615 28.5479C20.1024 30.3008 16.3712 31.4867 13.3561 31.8866C12.4397 32.0078 11.6983 32.0423 11.1033 32.023C12.2643 32.9541 13.5559 33.6966 14.9281 34.2306C17.9414 33.6751 21.4453 32.5026 24.9447 30.8708C24.9689 30.8595 24.9935 30.848 25.0177 30.8367C26.714 30.0426 28.1035 32.3941 26.5782 33.481C26.1666 33.7744 25.7359 34.0485 25.2876 34.302C25.6407 34.1692 25.9917 34.0224 26.3394 33.8603C33.6102 30.4699 36.7557 21.8279 33.3652 14.557C29.9748 7.28613 21.3319 4.14169 14.0611 7.53215Z" fill="url(#paint4_linear)"/>
<path d="M20.0945 30.1303C19.8185 29.5384 19.1417 29.2499 18.5227 29.4584C16.4931 30.1431 14.5671 30.618 12.8691 30.8432C11.526 31.0213 10.559 31.0126 9.87769 30.9209C10.8522 31.9045 11.9536 32.7332 13.1426 33.3927C15.0122 33.1501 17.1476 32.6852 19.3614 31.939C20.088 31.6941 20.4182 30.8246 20.0945 30.1303Z" fill="url(#paint5_linear)"/>
<path d="M34.4705 23.4081C32.2423 25.5508 28.7027 27.8938 24.4751 29.8652C20.248 31.8363 16.1787 33.0421 13.1042 33.3713C13.6921 33.7001 14.3013 33.9876 14.9272 34.2317C17.9406 33.6761 21.4444 32.5036 24.9438 30.8718C24.968 30.8605 24.9927 30.849 25.0169 30.8378C26.7132 30.0436 28.1027 32.3951 26.5774 33.4821C26.1657 33.7754 25.7351 34.0495 25.2867 34.303C25.6399 34.1703 25.9909 34.0235 26.3385 33.8614C30.7368 31.8104 33.625 27.8367 34.4705 23.4081Z" fill="url(#paint6_linear)"/>
<path d="M33.0462 13.9172C32.6007 13.0719 32.0815 12.2873 31.5011 11.5675C31.1948 12.193 30.5459 13.0904 29.2626 14.2641C27.0181 16.3168 23.7114 18.4128 19.9523 20.1657C16.1931 21.9186 12.462 23.1044 9.44678 23.5044C7.72277 23.7329 6.61842 23.6538 5.94244 23.4863C6.12072 24.3936 6.38827 25.2949 6.74968 26.1801C7.75942 26.247 8.82022 26.1737 9.7835 26.0457C11.7009 25.7914 13.8693 25.2511 16.1399 24.4721C16.7444 24.2647 17.4078 24.5489 17.6778 25.1279C17.9588 25.7306 18.6627 26.0103 19.2788 25.7606C20.1841 25.3942 21.0953 24.9974 22.0071 24.5723C26.4398 22.5052 30.3688 20.0064 33.071 17.5349C33.4186 17.2169 33.7704 16.8744 34.112 16.5154C33.9124 15.8553 33.6645 15.2015 33.3646 14.5582C33.2631 14.3407 33.1567 14.1273 33.0462 13.9172Z" fill="url(#paint7_linear)"/>
<path d="M27.3079 10.0723C26.0088 11.2603 24.3538 12.4627 22.4617 13.6049C22.0986 14.7421 21.2965 15.7716 19.9871 16.4329C19.5148 16.6713 19.0319 16.9058 18.5398 17.1353C18.8492 17.7787 19.626 18.0443 20.2676 17.7258C23.7692 15.9859 26.8508 13.9642 29.0382 11.9637C29.5363 11.508 30.0444 11 30.5088 10.4585C29.9022 9.84794 29.2469 9.29645 28.5512 8.80885C28.2238 9.18752 27.8158 9.60817 27.3079 10.0723Z" fill="url(#paint8_linear)"/>
<path d="M13.0478 8.05354C14.5425 7.49302 16.0803 7.19539 17.6061 7.14062C19.8155 7.06137 21.4174 8.27079 22.1839 9.87547C23.5311 9.00809 24.7249 8.12585 25.7248 7.26395C22.1022 5.77466 17.8912 5.74617 14.0611 7.53216C13.714 7.69402 13.3765 7.86833 13.0478 8.05354Z" fill="url(#paint9_linear)"/>
</g>
<path d="M44.1083 5.85892C41.5029 6.71632 40.5631 7.66486 39.7119 10.2966C39.6013 10.6407 39.1204 10.6407 39.0098 10.2966C38.1604 7.66672 37.2206 6.71818 34.6133 5.85892C34.2724 5.74733 34.2724 5.2619 34.6133 5.15031C37.2188 4.2929 38.1585 3.34437 39.0098 0.712648C39.1204 0.368571 39.6013 0.368571 39.7119 0.712648C40.5613 3.34251 41.501 4.29104 44.1083 5.15031C44.4492 5.2619 44.4492 5.74733 44.1083 5.85892Z" fill="#FED402"/>
<path d="M43.6279 15.7595C42.6429 16.0836 42.2877 16.4422 41.9659 17.437C41.9241 17.5671 41.7423 17.5671 41.7005 17.437C41.3794 16.4429 41.0242 16.0843 40.0385 15.7595C39.9097 15.7173 39.9097 15.5338 40.0385 15.4916C41.0235 15.1675 41.3787 14.8089 41.7005 13.8141C41.7423 13.684 41.9241 13.684 41.9659 13.8141C42.287 14.8082 42.6422 15.1668 43.6279 15.4916C43.7567 15.5338 43.7567 15.7173 43.6279 15.7595Z" fill="#FED402"/>
<defs>
<linearGradient id="paint0_linear" x1="6.60896" y1="27.0346" x2="33.2678" y2="14.6034" gradientUnits="userSpaceOnUse">
<stop stop-color="#FEF056"/>
<stop offset="0.5213" stop-color="#F4D902"/>
<stop offset="1" stop-color="#FE9738"/>
</linearGradient>
<linearGradient id="paint1_linear" x1="6.27117" y1="39.8883" x2="42.7376" y2="22.8838" gradientUnits="userSpaceOnUse">
<stop stop-color="#FBC56D"/>
<stop offset="0.5841" stop-color="#FE9738"/>
<stop offset="0.9984" stop-color="#FB2B3A"/>
</linearGradient>
<linearGradient id="paint2_linear" x1="-3.46843" y1="19.0014" x2="32.998" y2="1.9968" gradientUnits="userSpaceOnUse">
<stop stop-color="#FBC56D"/>
<stop offset="0.5841" stop-color="#FE9738"/>
<stop offset="0.9984" stop-color="#FB2B3A"/>
</linearGradient>
<linearGradient id="paint3_linear" x1="-0.685207" y1="24.9701" x2="35.7812" y2="7.9655" gradientUnits="userSpaceOnUse">
<stop stop-color="#FBC56D"/>
<stop offset="0.5841" stop-color="#FE9738"/>
<stop offset="0.9984" stop-color="#FB2B3A"/>
</linearGradient>
<linearGradient id="paint4_linear" x1="1.26177" y1="29.5281" x2="31.2309" y2="15.5532" gradientUnits="userSpaceOnUse">
<stop stop-color="#FEF056"/>
<stop offset="0.5213" stop-color="#F4D902"/>
<stop offset="1" stop-color="#FE9738"/>
</linearGradient>
<linearGradient id="paint5_linear" x1="4.52434" y1="36.1418" x2="40.9908" y2="19.1372" gradientUnits="userSpaceOnUse">
<stop stop-color="#FBC56D"/>
<stop offset="0.5841" stop-color="#FE9738"/>
<stop offset="0.9984" stop-color="#FB2B3A"/>
</linearGradient>
<linearGradient id="paint6_linear" x1="9.6948" y1="38.2919" x2="34.0145" y2="26.9514" gradientUnits="userSpaceOnUse">
<stop stop-color="#FBC56D"/>
<stop offset="0.5841" stop-color="#FE9738"/>
<stop offset="0.9984" stop-color="#FB2B3A"/>
</linearGradient>
<linearGradient id="paint7_linear" x1="1.57276" y1="29.8124" x2="38.0392" y2="12.8078" gradientUnits="userSpaceOnUse">
<stop stop-color="#FBC56D"/>
<stop offset="0.5841" stop-color="#FE9738"/>
<stop offset="0.9984" stop-color="#FB2B3A"/>
</linearGradient>
<linearGradient id="paint8_linear" x1="-1.61446" y1="25.4034" x2="30.1017" y2="10.614" gradientUnits="userSpaceOnUse">
<stop stop-color="#FBC56D"/>
<stop offset="0.5841" stop-color="#FE9738"/>
<stop offset="0.9984" stop-color="#FB2B3A"/>
</linearGradient>
<linearGradient id="paint9_linear" x1="1.76127" y1="16.334" x2="24.1667" y2="5.88619" gradientUnits="userSpaceOnUse">
<stop stop-color="#FBC56D"/>
<stop offset="0.5841" stop-color="#FE9738"/>
<stop offset="0.9984" stop-color="#FB2B3A"/>
</linearGradient>
<clipPath id="clip0">
<rect width="29.051" height="29.051" fill="white" transform="translate(0.896484 13.6709) rotate(-25)"/>
</clipPath>
</defs>
</svg>
