<svg width="18" height="16" viewBox="0 0 18 16" fill="none" xmlns="http://www.w3.org/2000/svg">
<path fill-rule="evenodd" clip-rule="evenodd" d="M2.21733 14.7963L7.50979 8.91474C8.23488 8.10874 8.23164 6.88516 7.50656 6.08238L2.21733 0.242871C1.10705 -0.948338 0.00647341 2.36633 -3.29829e-07 7.49371L-3.29404e-07 7.50342L-3.28696e-07 7.5196L-3.27989e-07 7.53579L-3.27564e-07 7.5455C0.00647386 12.6696 1.10705 15.9875 2.21733 14.7963ZM6.60668 15.0393L12.1193 8.91494C12.8443 8.10893 12.8411 6.88535 12.116 6.08258L6.60668 0.000292489L4.2016 0.000292594L9.99256 6.39009C10.5623 7.01807 10.5623 7.97298 9.9958 8.60095L4.2016 15.0393L6.60668 15.0393ZM16.7514 8.91494L11.5528 14.6865C11.3521 14.9131 11.064 15.0393 10.763 15.0393L8.83372 15.0393L14.6279 8.60095C15.1944 7.97298 15.1944 7.01807 14.6247 6.39009L8.83696 0.000293345L10.7694 0.000293261C11.0672 0.000293248 11.3553 0.126536 11.556 0.349887L16.7481 6.08258C17.4732 6.88535 17.4765 8.10893 16.7514 8.91494Z" fill="#FF5C00"/>
</svg>
