<svg width="154" height="64" viewBox="0 0 154 64" fill="none" xmlns="http://www.w3.org/2000/svg">
<g clip-path="url(#clip0)" filter="url(#filter0_d)">
<path fill-rule="evenodd" clip-rule="evenodd" d="M87.5445 1.04C84.6245 2.56 83.5701 5.12 83.5701 12.08C83.5701 12.08 85.0301 10.64 87.2201 9.92C88.8423 9.36 90.1401 8.48 90.9512 7.92C93.3845 6.16 93.7901 3.84 93.7901 0C93.709 0.08 89.7345 -0.08 87.5445 1.04Z" fill="white"/>
<path fill-rule="evenodd" clip-rule="evenodd" d="M70.43 2.71958C68.0778 4.79958 67.3478 8.07958 67.3478 8.07958L59.48 37.8396L52.9911 13.4396C52.3422 10.8796 51.2067 7.59958 49.4222 5.43958C47.1511 2.71958 42.5278 2.55958 42.0411 2.55958C41.5544 2.55958 36.85 2.71958 34.5789 5.51958C32.7944 7.67958 31.5778 10.9596 31.01 13.5196L24.5211 37.9196L16.7344 8.07958C16.7344 8.07958 16.0856 4.79958 13.6522 2.71958C9.75889 -0.64042 4 0.0795793 4 0.0795793L18.9244 55.9196C18.9244 55.9196 23.8722 56.3196 26.3056 55.0396C29.55 53.4396 31.0911 52.1596 33.1189 44.4796C34.9033 37.6796 39.77 17.8396 40.2567 16.3996C40.5 15.6796 40.7433 13.9996 42.0411 13.9996C43.3389 13.9996 43.5822 15.6796 43.8256 16.3996C44.3122 17.8396 49.1789 37.7596 50.9633 44.4796C52.91 52.0796 54.4511 53.2796 57.7767 55.0396C60.21 56.3196 65.1578 55.9196 65.1578 55.9196L80.0011 0.159579C80.0011 0.159579 74.2422 -0.560421 70.43 2.71958ZM93.7089 9.19958C93.7089 9.19958 92.8167 10.6396 90.6267 11.8396C89.2478 12.5596 87.95 13.1196 86.49 13.7596C84.1378 14.8796 83.4889 16.1596 83.4889 18.0796V55.9196C83.4889 55.9196 87.3011 56.3996 89.7344 55.1996C92.8978 53.5996 93.6278 52.0796 93.6278 45.1196V9.19958H93.7089ZM131.02 28.1596L150 0.239579C150 0.239579 141.97 -1.12042 137.996 2.47958C135.481 4.71958 132.561 8.79958 132.561 8.79958L125.667 18.7996C125.261 19.2796 124.937 19.8396 124.207 19.8396C123.477 19.8396 123.071 19.2796 122.747 18.7996L115.69 8.87958C115.69 8.87958 112.851 4.79958 110.256 2.55958C106.362 -1.04042 98.2511 0.319579 98.2511 0.319579L117.231 28.1596L98.2511 55.9196C98.2511 55.9196 106.606 56.9596 110.58 53.4396C113.094 51.1996 115.609 47.4396 115.609 47.4396L122.584 37.5196C122.99 37.0396 123.314 36.4796 124.044 36.4796C124.774 36.4796 125.18 37.0396 125.504 37.5196L132.48 47.4396C132.48 47.4396 135.076 51.1196 137.59 53.4396C141.483 57.0396 149.757 55.9196 149.757 55.9196L131.02 28.1596Z" fill="white"/>
</g>
<defs>
<filter id="filter0_d" x="0" y="0" width="154" height="64" filterUnits="userSpaceOnUse" color-interpolation-filters="sRGB">
<feFlood flood-opacity="0" result="BackgroundImageFix"/>
<feColorMatrix in="SourceAlpha" type="matrix" values="0 0 0 0 0 0 0 0 0 0 0 0 0 0 0 0 0 0 127 0"/>
<feOffset dy="4"/>
<feGaussianBlur stdDeviation="2"/>
<feColorMatrix type="matrix" values="0 0 0 0 0.0666667 0 0 0 0 0.0588235 0 0 0 0 0.0588235 0 0 0 0.3 0"/>
<feBlend mode="overlay" in2="BackgroundImageFix" result="effect1_dropShadow"/>
<feBlend mode="normal" in="SourceGraphic" in2="effect1_dropShadow" result="shape"/>
</filter>
<clipPath id="clip0">
<rect width="146" height="56" fill="white" transform="translate(4)"/>
</clipPath>
</defs>
</svg>
