<svg width="44" height="50" viewBox="0 0 44 50" fill="none" xmlns="http://www.w3.org/2000/svg">
<path d="M22 34.1487C26.9706 34.1487 31 30.086 31 25.0744C31 20.0627 26.9706 16 22 16C17.0294 16 13 20.0627 13 25.0744C13 30.086 17.0294 34.1487 22 34.1487Z" fill="url(#paint0_linear)"/>
<path d="M15.6269 23.3254C15.925 23.2369 16.2243 23.1417 16.5258 23.0407C17.014 22.8751 17.2728 22.3386 17.1029 21.8486C16.9364 21.3676 16.4167 21.1101 15.9385 21.2735C15.6607 21.3676 15.3839 21.4561 15.1094 21.5378C14.6875 21.6625 14.4108 22.0686 14.4479 22.511C14.4963 23.0963 15.0667 23.491 15.6269 23.3254Z" fill="url(#paint1_linear)"/>
<path d="M18.4291 27.0832C18.4291 26.7712 18.3582 26.4763 18.2333 26.2132C18.8217 26.2098 19.2976 25.7277 19.2976 25.1333C19.2976 24.5367 18.8183 24.0535 18.2266 24.0535C17.6348 24.0535 17.1556 24.5367 17.1556 25.1333C17.1556 25.1594 17.1567 25.1855 17.159 25.2104C16.9351 25.1231 16.6921 25.0743 16.4367 25.0743C15.3365 25.0743 14.4443 25.9738 14.4443 27.0832C14.4443 28.1925 15.3365 29.092 16.4367 29.092C17.537 29.092 18.4291 28.1925 18.4291 27.0832Z" fill="url(#paint2_linear)"/>
<path d="M19.6237 19.1309C20.2152 19.1309 20.6947 18.6474 20.6947 18.051C20.6947 17.4547 20.2152 16.9712 19.6237 16.9712C19.0322 16.9712 18.5527 17.4547 18.5527 18.051C18.5527 18.6474 19.0322 19.1309 19.6237 19.1309Z" fill="url(#paint3_linear)"/>
<path d="M21.9997 16C21.7218 16 21.4485 16.0136 21.1773 16.0386C22.3878 16.1282 22.7838 17.706 21.786 18.3832C21.1593 18.8085 20.4888 19.2146 19.7812 19.5957C19.3233 19.843 19.1366 20.4249 19.3683 20.8934C19.5247 21.2076 19.8352 21.3879 20.1592 21.3879C20.2998 21.3879 20.4427 21.3539 20.5754 21.2824C21.4507 20.814 22.2787 20.3069 23.0437 19.7738C23.4869 19.4641 24.0922 19.5492 24.4398 19.9644C24.6063 20.164 24.6873 20.4056 24.6873 20.6461C24.6873 20.975 24.5366 21.3006 24.2486 21.5081C23.8661 21.7838 23.4644 22.0537 23.0471 22.3146C22.6758 22.546 22.4992 23.0043 22.6432 23.4194C22.8446 23.9979 23.5106 24.218 24.0078 23.9083C25.2712 23.1211 26.4007 22.2568 27.3412 21.3561C27.7676 20.9478 28.4673 21.1021 28.6901 21.6511C28.6923 21.6567 28.6946 21.6624 28.6968 21.6681C28.8183 21.9698 28.7564 22.3146 28.5382 22.554C28.2839 22.833 27.9577 23.1812 27.7889 23.3412C26.8732 24.2089 25.7561 25.0415 24.4972 25.7969C24.3059 25.08 23.6343 24.5605 22.8513 24.6116C22.0402 24.6649 21.3922 25.3398 21.3641 26.1588C21.3506 26.5648 21.4867 26.9391 21.7196 27.2295C21.4215 27.3611 21.1222 27.4859 20.8241 27.6038C20.3583 27.7876 20.1018 28.306 20.2627 28.7824C20.4337 29.286 20.985 29.5424 21.4743 29.3495C21.939 29.1669 22.4036 28.9684 22.8671 28.7563C25.4321 27.5766 27.6933 26.0601 29.3313 24.4312C29.3471 24.6445 29.3538 24.86 29.3538 25.0766C29.3538 25.2899 29.3459 25.502 29.3324 25.7107C28.0578 27.0231 26.3073 28.2742 24.3015 29.2939C21.9592 30.485 19.5731 31.2086 17.5672 31.3379C17.5346 31.3402 17.502 31.3425 17.4693 31.3436C16.6143 31.3913 15.8775 31.3198 15.3093 31.1462C16.0552 31.9811 16.9518 32.6753 17.9565 33.1857C18.5887 33.1313 19.248 33.028 19.9263 32.8783C21.6015 32.5085 23.3891 31.8563 25.1385 30.9659C25.1508 30.9602 25.1632 30.9534 25.1756 30.9477C25.9608 30.5462 26.6471 31.6249 25.9575 32.1785C24.621 33.2515 22.9762 33.9491 21.1773 34.1136C21.4485 34.1385 21.723 34.1521 21.9997 34.1521C26.9699 34.1521 30.9997 30.0902 30.9997 25.0778C30.9997 20.0653 26.9699 16 21.9997 16ZM25.6537 20.0131C25.0619 20.0131 24.5827 19.5299 24.5827 18.9333C24.5827 18.3366 25.0619 17.8534 25.6537 17.8534C26.2454 17.8534 26.7247 18.3366 26.7247 18.9333C26.7247 19.5299 26.2454 20.0131 25.6537 20.0131ZM27.8216 30.9251C27.2298 30.9251 26.7506 30.4419 26.7506 29.8452C26.7506 29.2486 27.2298 28.7654 27.8216 28.7654C28.4133 28.7654 28.8926 29.2486 28.8926 29.8452C28.8926 30.4419 28.4133 30.9251 27.8216 30.9251Z" fill="url(#paint4_linear)"/>
<path d="M22 38C29.1797 38 35 32.1797 35 25C35 17.8203 29.1797 12 22 12C14.8203 12 9 17.8203 9 25C9 32.1797 14.8203 38 22 38Z" stroke="#A24E8A" stroke-opacity="0.1" stroke-miterlimit="10"/>
<path d="M22 42C31.3888 42 39 34.3888 39 25C39 15.6112 31.3888 8 22 8C12.6112 8 5 15.6112 5 25C5 34.3888 12.6112 42 22 42Z" stroke="#A24E8A" stroke-opacity="0.1" stroke-miterlimit="10"/>
<path d="M22 46C33.598 46 43 36.598 43 25C43 13.402 33.598 4 22 4C10.402 4 1 13.402 1 25C1 36.598 10.402 46 22 46Z" stroke="#A24E8A" stroke-opacity="0.1" stroke-miterlimit="10"/>
<path d="M22.0001 49.5612C24.367 49.5612 26.2858 47.6116 26.2858 45.2066C26.2858 42.8017 24.367 40.8521 22.0001 40.8521C19.6331 40.8521 17.7144 42.8017 17.7144 45.2066C17.7144 47.6116 19.6331 49.5612 22.0001 49.5612Z" fill="#925CB4"/>
<path d="M22.9514 45.2068C22.9514 47.0106 21.8715 48.5593 20.3323 49.2202C20.8454 49.4409 21.4084 49.5627 22.0001 49.5627C24.3671 49.5627 26.2858 47.6131 26.2858 45.2081C26.2858 42.8031 24.3671 40.8535 22.0001 40.8535C21.4084 40.8535 20.8454 40.9753 20.3323 41.196C21.8715 41.8556 22.9514 43.4031 22.9514 45.2068Z" fill="#814BA2"/>
<path d="M10.0936 17.3632C11.9354 17.3632 13.4286 15.846 13.4286 13.9745C13.4286 12.1031 11.9354 10.5859 10.0936 10.5859C8.25168 10.5859 6.75854 12.1031 6.75854 13.9745C6.75854 15.846 8.25168 17.3632 10.0936 17.3632Z" fill="#FD4755"/>
<path d="M10.9389 13.9745C10.9389 15.3991 10.0731 16.6151 8.84814 17.1168C9.23295 17.2745 9.65239 17.3632 10.0936 17.3632C11.9356 17.3632 13.4286 15.8461 13.4286 13.9745C13.4286 12.103 11.9356 10.5859 10.0936 10.5859C9.65368 10.5859 9.23295 10.6746 8.84814 10.8323C10.0731 11.334 10.9389 12.5513 10.9389 13.9745Z" fill="#FB2B3A"/>
<path d="M38.3649 28.9389C40.2139 28.9389 41.7129 27.4159 41.7129 25.5371C41.7129 23.6583 40.2139 22.1353 38.3649 22.1353C36.5158 22.1353 35.0168 23.6583 35.0168 25.5371C35.0168 27.4159 36.5158 28.9389 38.3649 28.9389Z" fill="#FED402"/>
<path d="M39.0352 25.5371C39.0352 26.9317 38.208 28.1296 37.0266 28.6553C37.437 28.8379 37.8894 28.9389 38.3661 28.9389C40.2153 28.9389 41.7141 27.4161 41.7141 25.5371C41.7141 23.6581 40.2153 22.1353 38.3661 22.1353C37.8894 22.1353 37.437 22.2376 37.0266 22.4188C38.208 22.9433 39.0352 24.1424 39.0352 25.5371Z" fill="#FAC600"/>
<path d="M24.4786 3.26682C24.5299 1.70388 23.3245 0.39464 21.7862 0.342562C20.248 0.290485 18.9595 1.51529 18.9082 3.07823C18.857 4.64118 20.0624 5.95042 21.6006 6.0025C23.1389 6.05458 24.4274 4.82977 24.4786 3.26682Z" fill="#97D729"/>
<path d="M21.0994 3.17176C21.0994 2.00422 21.7961 1.00178 22.7892 0.568576C22.4526 0.421974 22.0821 0.340088 21.6921 0.340088C20.1531 0.340088 18.9053 1.608 18.9053 3.17176C18.9053 4.73551 20.1531 6.00342 21.6921 6.00342C22.0821 6.00342 22.4526 5.92154 22.7892 5.77494C21.7961 5.34173 21.0994 4.33929 21.0994 3.17176Z" fill="#8BC727"/>
<defs>
<linearGradient id="paint0_linear" x1="12.9994" y1="25.0743" x2="30.9991" y2="25.0743" gradientUnits="userSpaceOnUse">
<stop offset="0.21875" stop-color="#80C5FF"/>
<stop offset="0.677083" stop-color="#0182FC"/>
<stop offset="1" stop-color="#2740B0"/>
</linearGradient>
<linearGradient id="paint1_linear" x1="7.95224" y1="22.2941" x2="30.1953" y2="22.2941" gradientUnits="userSpaceOnUse">
<stop stop-color="#60B7FF"/>
<stop offset="0.5857" stop-color="#0182FC"/>
<stop offset="1" stop-color="#2740B0"/>
</linearGradient>
<linearGradient id="paint2_linear" x1="7.95203" y1="26.573" x2="30.1951" y2="26.573" gradientUnits="userSpaceOnUse">
<stop stop-color="#60B7FF"/>
<stop offset="0.5857" stop-color="#0182FC"/>
<stop offset="1" stop-color="#2740B0"/>
</linearGradient>
<linearGradient id="paint3_linear" x1="7.95194" y1="18.0514" x2="30.195" y2="18.0514" gradientUnits="userSpaceOnUse">
<stop stop-color="#60B7FF"/>
<stop offset="0.5857" stop-color="#0182FC"/>
<stop offset="1" stop-color="#2740B0"/>
</linearGradient>
<linearGradient id="paint4_linear" x1="7.95215" y1="25.0743" x2="30.1948" y2="25.0743" gradientUnits="userSpaceOnUse">
<stop stop-color="#60B7FF"/>
<stop offset="0.5857" stop-color="#0182FC"/>
<stop offset="1" stop-color="#2740B0"/>
</linearGradient>
</defs>
</svg>
