<svg width="48" height="47" viewBox="0 0 48 47" fill="none" xmlns="http://www.w3.org/2000/svg">
<path fill-rule="evenodd" clip-rule="evenodd" d="M0 24.0198C0 10.7373 10.7373 0 24.0198 0C37.2626 0 48.0397 10.7373 47.9999 24.0198C47.9999 34.6379 41.12 43.6254 31.5757 46.8069C30.3827 47.0455 29.9453 46.2899 29.9453 45.6536C29.9453 45.3896 29.9496 44.9283 29.9555 44.3121L29.9555 44.3118L29.9555 44.3113L29.9555 44.3108L29.9555 44.31C29.9673 43.0698 29.985 41.2028 29.985 39.0521C29.985 36.7853 29.2294 35.3537 28.3545 34.5981C33.7232 34.0016 39.3305 31.9734 39.3305 22.7473C39.3305 20.1226 38.4158 17.9751 36.8649 16.3049C37.1035 15.7083 37.9386 13.2427 36.6263 9.94198C36.6263 9.94198 34.5981 9.3057 30.0248 12.4076C28.1159 11.8906 26.048 11.6122 24.0198 11.6122C21.9917 11.6122 19.9237 11.8906 18.0149 12.4076C13.4416 9.3057 11.4134 9.94198 11.4134 9.94198C10.1011 13.2427 10.9362 15.7083 11.1748 16.3049C9.66361 17.9751 8.70918 20.1226 8.70918 22.7473C8.70918 31.9734 14.3165 34.0413 19.6454 34.5981C18.9693 35.1946 18.333 36.2684 18.1342 37.8193C16.7423 38.4556 13.2825 39.4896 11.135 35.8309C11.135 35.8309 9.86245 33.5244 7.4366 33.3653C7.4366 33.3653 5.09029 33.3653 7.27753 34.8367C7.27753 34.8367 8.86825 35.5525 9.94198 38.3363C9.94198 38.3363 11.3339 42.6312 18.0149 41.1996C18.0149 42.4992 18.0319 43.7648 18.0436 44.6412L18.0436 44.6416L18.0436 44.642L18.0436 44.6422L18.0436 44.6425V44.6426C18.0499 45.1064 18.0546 45.4609 18.0546 45.6536C18.0546 46.2899 17.6172 47.0455 16.4242 46.8069C6.87985 43.6254 0 34.6379 0 24.0198ZM8.70917 34.5584C8.86825 34.6379 9.06709 34.5981 9.10685 34.4788C9.14662 34.3595 9.06709 34.2005 8.90801 34.1209C8.74894 34.0414 8.5501 34.0812 8.51033 34.2005C8.4308 34.3198 8.5501 34.4788 8.70917 34.5584ZM10.0613 35.5525C9.94198 35.6718 9.70337 35.5923 9.58407 35.4332C9.425 35.2741 9.38523 35.0355 9.50453 34.9162C9.62383 34.7969 9.82267 34.8765 9.98175 35.0355C10.1408 35.2344 10.1806 35.473 10.0613 35.5525ZM10.4987 36.7456C10.618 36.9444 10.8566 37.0637 11.0157 36.9444C11.1748 36.8251 11.1748 36.5865 11.0157 36.3877C10.8964 36.1888 10.6578 36.0695 10.4987 36.1888C10.3397 36.2684 10.3397 36.5468 10.4987 36.7456ZM12.3281 38.2966C12.2088 38.4556 11.9304 38.4159 11.6918 38.217C11.4929 38.0182 11.4134 37.7398 11.5725 37.6205C11.6918 37.4614 11.9701 37.5012 12.2088 37.7C12.4076 37.8591 12.4474 38.1375 12.3281 38.2966ZM13.5211 39.2509C13.7995 39.3305 14.0779 39.2509 14.1176 39.0521C14.1574 38.8533 13.9983 38.6544 13.7199 38.5749C13.4416 38.4953 13.1632 38.5749 13.1234 38.7737C13.0837 38.9328 13.2427 39.1714 13.5211 39.2509ZM16.0662 39.2112C16.0662 39.41 15.8276 39.5691 15.5493 39.5691C15.2709 39.5691 15.0323 39.41 15.0323 39.2112C15.0323 39.0123 15.2709 38.8532 15.5493 38.8532C15.8276 38.8532 16.0662 39.0123 16.0662 39.2112ZM17.4581 39.3305C17.7365 39.2907 17.9353 39.0919 17.8956 38.893C17.8558 38.6942 17.6172 38.5749 17.3388 38.6146C17.0604 38.6544 16.8616 38.8533 16.9014 39.0521C16.9411 39.2509 17.1797 39.3702 17.4581 39.3305Z" fill="currentColor"/>
</svg>
