<svg width="38" height="38" viewBox="0 0 38 38" fill="none" xmlns="http://www.w3.org/2000/svg">
<path fill-rule="evenodd" clip-rule="evenodd" d="M13.987 7.98371C11.7899 7.98371 9.99512 6.18892 9.99512 3.99186C9.99512 1.79479 11.7899 0 13.987 0C16.184 0 17.9788 1.79479 17.9788 3.99186V7.98371H13.987ZM13.987 20.021C11.7899 20.021 9.99512 21.8158 9.99512 24.0128V34.008C9.99512 36.205 11.7899 37.9998 13.987 37.9998C16.184 37.9998 17.9788 36.205 17.9788 34.008V24.0128C17.9788 21.8158 16.184 20.021 13.987 20.021ZM3.99186 28.005C6.18892 28.005 7.98371 26.2102 7.98371 24.0131V20.0212H3.99186C1.79479 20.0212 0 21.816 0 24.0131C0 26.2102 1.79479 28.005 3.99186 28.005ZM17.9788 13.987C17.9788 11.7899 16.184 9.99512 13.987 9.99512H3.99186C1.79479 9.99512 0 11.7899 0 13.987C0 16.184 1.79479 17.9788 3.99186 17.9788H13.987C16.184 17.9788 17.9788 16.184 17.9788 13.987ZM30.0162 13.987C30.0162 11.7899 31.811 9.99512 34.0081 9.99512C36.2052 9.99512 37.9999 11.7899 37.9999 13.987C37.9999 16.184 36.2052 17.9788 34.0081 17.9788H30.0162V13.987ZM24.013 17.9788C26.21 17.9788 28.0048 16.184 28.0048 13.987V3.99186C28.0048 1.79479 26.21 0 24.013 0C21.8159 0 20.0211 1.79479 20.0211 3.99186V13.987C20.0211 16.184 21.8159 17.9788 24.013 17.9788ZM24.013 30.0161C26.21 30.0161 28.0048 31.8109 28.0048 34.008C28.0048 36.205 26.21 37.9998 24.013 37.9998C21.8159 37.9998 20.0211 36.205 20.0211 34.008V30.0161H24.013ZM20.0211 24.0131C20.0211 26.2102 21.8159 28.005 24.013 28.005H34.0081C36.2052 28.005 37.9999 26.2102 37.9999 24.0131C37.9999 21.816 36.2052 20.0212 34.0081 20.0212H24.013C21.8159 20.0212 20.0211 21.816 20.0211 24.0131Z" fill="currentColor"/>
</svg>
