<svg width="48" height="48" viewBox="0 0 48 48" fill="none" xmlns="http://www.w3.org/2000/svg">
<path fill-rule="evenodd" clip-rule="evenodd" d="M48 24C48 37.2548 37.2548 48 24 48C10.7452 48 0 37.2548 0 24C0 10.7452 10.7452 0 24 0C37.2548 0 48 10.7452 48 24ZM24.86 17.7179C22.5257 18.6888 17.8602 20.6984 10.8638 23.7467C9.72764 24.1985 9.13249 24.6404 9.07831 25.0726C8.98674 25.803 9.9014 26.0906 11.1469 26.4823C11.3163 26.5355 11.4919 26.5907 11.6718 26.6492C12.8972 27.0476 14.5456 27.5136 15.4025 27.5321C16.1799 27.5489 17.0474 27.2284 18.0053 26.5707C24.5423 22.158 27.9167 19.9276 28.1286 19.8795C28.2781 19.8456 28.4852 19.803 28.6255 19.9277C28.7658 20.0524 28.752 20.2886 28.7372 20.352C28.6466 20.7383 25.0562 24.0762 23.1982 25.8036C22.619 26.3421 22.2081 26.7241 22.1241 26.8113C21.936 27.0067 21.7442 27.1916 21.5599 27.3692C20.4215 28.4667 19.5678 29.2897 21.6072 30.6336C22.5872 31.2794 23.3715 31.8135 24.1539 32.3463C25.0083 32.9282 25.8605 33.5086 26.9632 34.2314C27.2441 34.4155 27.5124 34.6068 27.7737 34.7931C28.7681 35.502 29.6615 36.1389 30.7651 36.0373C31.4065 35.9783 32.0689 35.3753 32.4053 33.5767C33.2004 29.3263 34.7632 20.1169 35.1244 16.322C35.1561 15.9895 35.1162 15.5639 35.0843 15.3772C35.0523 15.1904 34.9855 14.9242 34.7427 14.7272C34.4552 14.4939 34.0112 14.4447 33.8127 14.448C32.91 14.4641 31.5251 14.9456 24.86 17.7179Z" fill="currentColor"/>
</svg>
