<svg width="38" height="31" viewBox="0 0 38 31" fill="none" xmlns="http://www.w3.org/2000/svg">
<path d="M11.9502 31C26.2899 31 34.1331 19.0723 34.1331 8.72874C34.1331 8.38995 34.1331 8.0527 34.1103 7.71696C35.6361 6.60891 36.9533 5.23694 38 3.66528C36.5771 4.29829 35.0677 4.71342 33.5221 4.89681C35.1496 3.91858 36.3677 2.37999 36.9497 0.567388C35.4193 1.47914 33.745 2.1217 31.999 2.46733C30.8236 1.21243 29.2689 0.381466 27.5756 0.103029C25.8824 -0.175408 24.1449 0.114205 22.6321 0.92705C21.1193 1.73989 19.9155 3.03066 19.207 4.59959C18.4985 6.16853 18.3248 7.92817 18.7127 9.60622C15.6131 9.45021 12.5807 8.64149 9.81257 7.23258C7.04441 5.82366 4.60231 3.84603 2.6448 1.42808C1.64782 3.15125 1.34246 5.19113 1.79091 7.13239C2.23935 9.07365 3.40787 10.7703 5.05856 11.877C3.81785 11.8401 2.60418 11.504 1.52 10.8973C1.52 10.9293 1.52 10.9629 1.52 10.9965C1.52049 12.8036 2.1436 14.555 3.28363 15.9535C4.42366 17.3521 6.01043 18.3116 7.7748 18.6695C6.627 18.9837 5.42272 19.0297 4.25448 18.8038C4.75267 20.3591 5.72259 21.7192 7.02859 22.6938C8.33458 23.6684 9.91133 24.2089 11.5383 24.2396C8.7776 26.4179 5.36721 27.6005 1.85592 27.5969C1.23561 27.5957 0.61591 27.558 0 27.484C3.56537 29.7811 7.71387 30.9996 11.9502 30.9939" fill="currentColor"/>
</svg>
